Patient4_TMGait_0pt5_01_right_12_EMG.mot
version=1
nRows=40
nColumns=33
inDegrees=no
endheader
time	1LAddLong	2LGlutMax	3LGlutMed	4LIliopsoas	5LSemiMemb	6LBicFemLong	7LRecFem	8LVastMed	9LVastLat	10LGasMed	11LTibAnt	12lTibPost	13LPeroneusLong	14LSol	15LExtDigLong	16LFlexDigLong	17RAddLong	18RGlutMax	19RGlutMed	20RIliopsoas	21RSemiMemb	22RBicFemLong	23RRecFem	24RVastMed	25RVastLat	26RGasMed	27RTibAnt	28RTibPost	29RPeroneusLong	30RSol	31RExtDigLong	32RFlexDigLong
15.51	0.030823	0.041962	0.15198	0.008392	0.03006	-0.15625	-0.05127	-0.004578	0.055542	-0.056763	-0.03067	0.009003	-0.073395	-0.12512	-0.3093	-0.004883	0.021973	-0.13596	-0.15167	0.097504	-0.013885	-0.055237	0.26291	-0.063324	0.046692	-0.00824	0.34576	-0.001984	-0.24612	0.021973	0.000916	0.24002
15.511	0.02594	0.060425	0.063171	-0.012665	0.045776	-0.12451	0.070648	-0.004272	0.065765	-0.019531	-0.016327	0.013733	-0.028076	-0.11475	-0.15671	-0.002747	-0.017242	-0.10208	-0.092468	0.13336	-0.003052	-0.039673	0.112	-0.04425	0.011444	0.005035	-0.33722	-0.002899	0.24399	0.028992	0.000153	0.040588
15.512	0.010376	0.070648	-0.053253	0.013885	0.064392	-0.03891	0.13931	0.005341	0.060425	-0.015411	-0.000153	0.001984	-0.13153	-0.13306	0.11719	0.009918	-0.045471	-0.11246	-0.10437	0.085144	0.007477	-0.024872	0.1413	-0.040894	0.011139	0.005035	-0.13641	-0.00473	0.30304	0.05722	-0.003357	-0.11673
15.513	0.018463	0.075378	-0.085297	0.005493	0.052338	-0.035553	0.11749	0.008087	0.045319	-0.054932	-0.037231	0.007324	-0.16602	-0.10208	0.1535	0.016785	-0.039673	-0.075378	-0.11963	0.02121	0.015259	-0.029755	0.23468	0.001984	0.00885	0.00351	0.015564	-0.004272	0.075531	0.04425	-0.001373	-0.11856
15.514	0.005951	0.06134	-0.003815	0.02182	0.051575	-0.05188	0.071411	0.013275	0.020599	-0.016327	-0.001678	0.007324	-0.2182	-0.01709	0.27435	0.007019	-0.020905	-0.063934	-0.15488	-0.001831	0.034943	0.012054	0.21454	0.017853	0.026855	-0.00824	0.33966	-0.005341	-0.11627	0.064545	0	-0.17639
15.515	0.003662	0.039063	-0.10483	0.027618	0.034637	-0.033875	0.095673	0.022278	0.036316	-0.001831	0.021973	0.010834	0.000916	0.007324	0.34775	-0.016479	-0.00061	-0.13336	-0.35019	0.000763	0.040436	0.038605	0.10574	-0.010223	0.024872	-0.008392	0.84991	-0.005798	-0.1564	0.032196	0.00351	-0.21271
15.516	0.004578	0.02594	-0.23392	-0.023193	0.015106	-0.015259	0.059052	-0.008545	0.075531	0.085907	0.067291	0.006256	0.26657	-0.010681	0.11185	-0.023193	0.053864	-0.15717	-0.23605	-0.050964	0.049133	0.07019	0.007935	-0.03479	0.030975	-0.009766	0.65491	-0.001831	0.062714	0.032349	-0.00061	-0.17624
15.517	0.010681	0.052338	0.15396	-0.017853	-0.002289	-0.049744	-0.065002	-0.015717	0.10147	0.13168	-0.000153	0.013428	0.22583	0.003967	-0.00946	-0.012207	0.073242	-0.070038	0.1294	-0.086365	0.037842	0.089417	-0.099792	-0.066681	0.047302	0.001221	0.3305	-0.002747	0.30411	-0.028687	-0.001526	-0.11566
15.518	0.007172	0.045624	0.21469	-0.011902	-0.023041	-0.06012	-0.078278	-0.018158	0.16022	0.1738	-0.048828	0.007629	0.034943	-0.02243	-0.19134	-0.007324	0.056915	-0.074615	0.19302	-0.12817	0.041199	0.075531	-0.094757	-0.066986	0.038147	-0.002747	0.21561	-0.001984	0.33646	-0.087128	0.000153	-0.066833
15.519	0.000458	0.03067	0.10895	0.004425	-0.007019	-0.025787	-0.092621	-0.013885	0.085144	0.13977	-0.027313	0.011902	0.23041	-0.014648	-0.18768	-0.01236	0.024872	-0.058136	-0.09964	-0.09903	0.042419	0.074005	-0.05188	-0.030212	0.04425	-0.012207	0.31296	-0.002899	-0.099792	-0.098877	0.000153	-0.058136
15.52	0.001373	0.02655	-0.008087	-0.013885	0.023499	-0.010376	-0.063019	-0.014496	0.13886	0.069122	0.006866	0.015564	0.42343	-0.089111	-0.15472	-0.007019	0.031128	-0.11704	-0.19226	0.011139	0.043182	0.071259	0.066833	0.014496	0.04364	-0.007324	0.094147	-0.002594	-0.47775	-0.1239	-0.000916	-0.088959
15.521	0.002899	0.018311	-0.045776	0.015717	0.020905	-0.000458	-0.002441	-0.017548	0.14771	0.050964	0.024719	0.018463	0.35553	-0.12634	-0.16876	-0.001221	-0.01358	-0.08255	-0.082397	0.015259	0.059509	0.03067	0.091095	0.01709	0.032806	0.000916	-0.35034	-0.002899	-0.51468	-0.21362	0.001221	-0.12512
15.522	-0.022278	0.032806	0.02121	0.004883	-0.027008	0.04364	0.097656	-0.012207	0.11154	0.014038	0.036926	0.019684	0.1326	-0.0354	-0.087585	0.005188	-0.038147	-0.07782	-0.041199	0.029602	0.042267	0.008392	0.13992	-0.008698	0.012665	0.007019	-0.7193	-0.003815	-0.15167	-0.23285	0.002289	-0.10452
15.523	-0.008698	-0.006714	-0.047913	0.019836	-0.051117	0.032654	0.10086	-0.01297	0.10956	0.004425	0.03067	0.022278	-0.73105	0.059204	0.16327	-0.00412	-0.028992	-0.089874	-0.20187	0.015869	0.028687	-0.042419	0.14252	-0.018311	-0.004578	-0.000305	-0.71747	-0.002747	-0.11459	-0.039368	0.001984	-0.061798
15.524	-0.006714	-0.005341	-0.010529	0.000458	-0.010376	0.027618	0.076447	0.004578	0.095367	0.009308	0.045319	0.015564	-0.62546	0.028839	0.224	0.005951	0	-0.13306	-0.2301	0.027161	0.001984	-0.090027	0.22446	-0.10742	-0.016327	-0.022888	-0.20706	-0.005646	-0.45334	0.14511	-0.000458	-0.029297
15.525	0.002136	-0.028229	-0.11734	0.013275	0.058289	0.035095	0.083466	-0.007782	0.067139	-0.009308	0.078888	0.020294	0.17456	0.066376	0.13168	-0.000458	0.017395	-0.10819	-0.24963	-0.001373	0.001831	-0.11185	0.27512	-0.12085	-0.054932	-0.022888	0.24292	-0.004883	-0.24506	0.11475	0.000153	-0.006561
15.526	-0.005035	-0.01358	-0.13138	0.009003	0.058289	0.052185	0.086365	-0.000153	0.075073	-0.033112	0.087738	0.020447	0.15396	0.066071	0.051422	0.007935	0.065002	-0.13641	-0.12116	0.003662	-0.002747	-0.12207	0.2272	-0.062256	-0.032806	-0.001221	0.59982	-0.001984	0.26093	-0.041504	-0.003967	0.010223
15.527	-0.007019	0.021515	-0.20371	0.02182	0.041504	0.039063	0.11932	-0.006866	0.097351	-0.010681	0.11429	0.017548	-0.19898	0.009766	0.010681	0.013733	0.096283	-0.12054	-0.007324	-0.016327	-0.045929	-0.13229	0.16907	-0.055542	-0.039978	0.001831	0.45197	-0.003204	0.14587	-0.098419	-0.000763	0.011444
15.528	-0.002747	0.031433	-0.18295	0.022583	0.014648	0.036621	0.095825	-0.001984	0.075684	0.002441	-0.005798	0.016174	0.20752	-0.00824	-0.015106	0.002136	0.068359	-0.080109	0.007324	0.048828	-0.028839	-0.1268	0.093689	-0.10544	-0.042725	-0.002289	-0.33752	-0.00412	-0.050812	-0.10407	-0.000763	0.014496
15.529	-0.010681	0.024567	-0.043182	0.009308	-0.010681	0.010071	0.14374	0.00885	0.041656	-0.020294	-0.084229	0.024719	0.56305	-0.10681	-0.024109	0.006409	0.03952	-0.14603	-0.1207	0.035095	-0.00061	-0.10773	0.003967	-0.04364	-0.030518	-0.000305	-0.46219	-0.009003	-0.003204	-0.076447	0.000916	0.018463
15.53	-0.013885	0.004883	0.015411	-0.038147	-0.027313	0.00946	0.14236	0.005798	0.032654	-0.035858	-0.035553	0.010223	-0.36957	-0.091553	0.02243	0.001068	0.013733	-0.14343	-0.24933	0.054932	0.027618	-0.12253	-0.087585	-0.088043	-0.045471	-0.005188	-0.051575	-0.005493	-0.041351	-0.034485	0.002747	0.010376
15.531	-0.00946	0.006104	0.002899	-0.007172	-0.011292	0.028076	0.13229	0.010071	0.021973	-0.031891	-0.016632	0.007782	-0.66742	-0.018463	0.037994	0.005188	-0.018005	-0.14069	-0.2243	0.055542	0.079193	-0.10422	-0.096283	-0.12665	-0.032806	-0.008545	0.26154	-0.003967	-0.080566	0.008392	-0.000153	-0.000916
15.532	-0.00351	-0.000763	0.15915	-0.037537	0.049438	-0.01236	0.1178	0.002899	0.03418	0.019684	-0.008545	0.01236	-0.64941	0.083771	-0.050812	0.005035	-0.054321	-0.13229	-0.22797	-0.002136	0.004272	-0.089417	-0.027924	-0.11398	-0.029144	-0.01709	0.25482	-0.003357	-0.10117	0.054626	0.002747	-0.008698
15.533	-0.005188	0.013733	0.06546	-0.018616	0.050964	-0.006256	0.050507	0.000458	0.078735	0.093689	0.015564	0.018311	0.054932	0.034943	-0.11749	0.002747	-0.060577	-0.12344	-0.16922	0.011597	-0.074158	-0.021362	0.083466	-0.072937	-0.032806	-0.02182	0.16541	-0.005188	-0.08606	0.17853	0.00061	-0.008545
15.534	-0.00824	-0.012054	-0.068054	0.018311	0.03006	-0.002594	0.081024	0.002441	0.054169	0.096588	0.056305	0.015411	0.37796	-0.05722	-0.005951	0.010834	-0.032501	-0.19623	-0.2269	0.001831	-0.082092	-0.006409	0.11658	-0.094452	-0.024414	-0.019989	-0.18494	-0.006256	-0.1033	0.18402	0.001068	-0.009613
15.535	0.00061	-0.028839	-0.15595	0.026245	0.010529	-0.045471	0.06958	-0.00351	0.062714	0.062561	0.073547	0.01297	-0.009766	-0.032043	0.16144	-0.009308	0.001526	-0.19669	-0.20599	-0.012665	-0.026855	0.013123	0.040131	-0.062103	-0.012207	-0.017853	-0.47638	-0.002899	0.018616	0.112	-0.000153	-0.011292
15.536	-0.016937	-0.028381	-0.14618	0.012817	-0.028381	-0.086517	0.043182	0.00061	0.078125	0.02243	-0.061951	0.011444	-0.2594	0.06134	0.063934	0.003815	0.030365	-0.18707	-0.43091	0.013275	0.000916	0.015106	-0.088501	0.021057	-0.010834	-0.013885	-0.33783	-0.002136	0.1239	0.049133	0.000458	-0.00946
15.537	0.010376	0.012817	-0.19257	-0.013733	-0.028534	-0.086823	0.071411	0.003357	0.10086	0.030975	-0.17502	0.011902	-0.31372	0.19134	0.041504	-0.007172	0.029449	-0.18646	0.024567	-0.069733	0.013275	-0.004425	-0.091248	-0.059052	-0.001221	-0.015106	0.12665	0.002899	0.14435	0.027771	0.002136	-0.012207
15.538	0.017242	0.036926	0.0354	-0.008087	0.012665	-0.022736	0.096741	-0.006561	0.07019	0.032501	-0.23941	0.011749	0.24033	0.15656	-0.050201	-0.005341	0.011292	-0.095673	0.58411	-0.1741	-0.053558	-0.023499	-0.028839	-0.005798	-0.003357	-0.009918	0.40298	-0.001068	0.11246	-0.027008	0.000153	-0.015564
15.539	0.044708	0.031128	0.24582	-0.032196	0.043335	0.056458	0.11108	0.004578	0.031433	0.009766	-0.20737	0.013885	0.61874	0.11108	-0.054321	-0.006866	0.001221	-0.097504	0.12558	-0.089874	-0.10803	-0.023804	0.10452	-0.048828	-0.009003	0.000305	0.12558	-0.002289	0.049286	-0.092468	0.000305	-0.012817
15.54	-0.030212	-0.011292	0.10071	0.021515	0.032196	0.04425	0.098572	0.00412	0.023193	-0.005341	-0.06897	0.014801	-0.031128	0.15747	0.19241	-0.003052	-0.024567	-0.1532	-0.074005	-0.064545	-0.16159	-0.02121	0.16769	-0.11688	-0.008698	-0.003662	-0.27435	-0.001526	0.33981	-0.092163	-0.001068	-0.022125
15.541	0.000916	0.019836	0.026398	-0.009766	0.024414	0.031586	0.048065	0.001678	0.013428	-0.016022	0.080872	0.017548	-0.54901	0.15564	0.10422	-0.012054	-0.042114	-0.1329	-0.038147	-0.07431	-0.04364	-0.010071	0.23132	-0.12161	-0.019379	-0.003052	-0.67764	0.002594	1.0326	-0.12817	0.002594	-0.023193
15.542	0.00473	0.019379	-0.03067	-0.012207	0.014343	0.06897	0.047302	0.006256	0.046997	-0.024261	0.19623	0.013733	-0.35187	0.039673	-0.1239	-0.015869	-0.036926	-0.17532	-0.067444	-0.023193	0.14496	-0.012054	0.29068	-0.080109	-0.013428	-0.02243	-0.075989	-0.00351	0.24078	-0.16617	-0.000305	-0.02243
15.543	-0.004578	-0.008545	-0.074921	0.012207	-0.014496	0.13565	0.07309	0.003357	0.043335	-0.11978	0.071411	0.018463	0.28259	0.007172	-0.21683	-0.005188	-0.017548	-0.13138	-0.22873	0.10651	0.11383	-0.054169	0.298	-0.083771	-0.016937	-0.015106	0.6514	-0.001984	-0.46753	-0.16708	-0.000763	-0.016022
15.544	0.003052	0.025177	0.063782	0.014648	-0.073242	0.070953	0.10742	0.003357	0.035553	-0.16052	-0.054779	0.005341	0.52109	-0.011749	-0.40588	-0.013428	0.016022	-0.14862	-0.21759	0.15106	0.070496	-0.071564	0.34759	-0.11917	-0.000458	-0.011139	0.83435	-0.004272	-0.51025	-0.12604	-0.001831	-0.016785
15.545	-0.000916	0.039215	-0.033264	0.003204	-0.007172	-0.082703	0.1326	-0.001068	0.021057	-0.092926	-0.001526	0.00946	0.077667	-0.049438	-0.33752	-0.011902	0.0354	-0.18967	-0.17548	0.11063	0.11429	-0.08667	0.27741	-0.09491	0.027618	-0.001373	0.66956	-0.007629	-0.16769	-0.018921	-0.001984	-0.002747
15.546	0.001373	0.063477	0.14008	0.03067	0.035248	-0.14175	0.10971	0.000916	0.006104	-0.051117	0.005188	0.007172	-0.41611	0.055847	-0.065308	0.001373	0.046539	-0.16586	-0.063934	0.044708	0.14832	-0.072632	0.21225	-0.08728	0.013275	0.006714	-0.073547	-0.001526	-0.10132	0.057983	-0.001221	0.00412
15.547	-0.002441	0.027466	0.064545	-0.001221	0.060883	-0.063171	0.10574	0.007935	-0.007477	-0.10666	-0.039978	0.012207	-0.15381	0.12283	0.059357	0.015564	0.049744	-0.13351	-0.084229	0.071564	-0.086975	-0.043793	0.3096	-0.10315	0.027466	0.000763	-0.66162	-0.00061	-0.088348	0.15961	-0.000763	0.001678
15.548	-0.001526	0.019684	-0.017395	-0.007324	0.043182	0.013885	0.14511	0.008087	-0.006866	-0.13031	-0.074158	0.00412	-0.010986	-0.000916	0.079498	0.006104	0.041046	-0.14374	-0.076904	0.042114	-0.18463	-0.027161	0.33234	-0.060425	0.009155	0.000153	-0.54932	-0.011139	-0.37064	0.11185	-0.000458	-0.00351
15.549	0.004425	0.057068	0.001678	0.015411	0.027313	0.061035	0.14038	0.001984	-0.018311	-0.10193	-0.09903	0.010376	-0.077667	-0.025024	0.15137	0.009766	0.019531	-0.17441	0.093231	-0.023193	-0.24765	-0.036011	0.36835	-0.0737	-0.007324	-0.003052	-0.36743	-0.004425	-0.20355	0.032654	0.002594	-0.003815
